<?xml version="1.0" encoding="utf-8"?><svg xmlns="http://www.w3.org/2000/svg" xmlns:xlink="http://www.w3.org/1999/xlink"><symbol viewBox="0 0 512 512" id="icon-add-plus"><path d="M384 250v12c0 6.6-5.4 12-12 12h-98v98c0 6.6-5.4 12-12 12h-12c-6.6 0-12-5.4-12-12v-98h-98c-6.6 0-12-5.4-12-12v-12c0-6.6 5.4-12 12-12h98v-98c0-6.6 5.4-12 12-12h12c6.6 0 12 5.4 12 12v98h98c6.6 0 12 5.4 12 12zm120 6c0 137-111 248-248 248S8 393 8 256 119 8 256 8s248 111 248 248zm-32 0c0-119.9-97.3-216-216-216-119.9 0-216 97.3-216 216 0 119.9 97.3 216 216 216 119.9 0 216-97.3 216-216z"/></symbol><symbol viewBox="0 0 576 512" id="icon-alert"><path d="M248.747 204.705l6.588 112c.373 6.343 5.626 11.295 11.979 11.295h41.37a12 12 0 0011.979-11.295l6.588-112c.405-6.893-5.075-12.705-11.979-12.705h-54.547c-6.903 0-12.383 5.812-11.978 12.705zM330 384c0 23.196-18.804 42-42 42s-42-18.804-42-42 18.804-42 42-42 42 18.804 42 42zm-.423-360.015c-18.433-31.951-64.687-32.009-83.154 0L6.477 440.013C-11.945 471.946 11.118 512 48.054 512H527.94c36.865 0 60.035-39.993 41.577-71.987L329.577 23.985zM53.191 455.002L282.803 57.008c2.309-4.002 8.085-4.002 10.394 0l229.612 397.993c2.308 4-.579 8.998-5.197 8.998H58.388c-4.617.001-7.504-4.997-5.197-8.997z"/></symbol><symbol viewBox="0 0 512 512" id="icon-clear"><path d="M497.94 273.94a48 48 0 000-67.88l-160-160a48 48 0 00-67.88 0l-256 256a48 48 0 000 67.88l96 96A48 48 0 00144 480h356a12 12 0 0012-12v-24a12 12 0 00-12-12H339.88l158.06-158.06zM304 80l160 160-103 103-160-160zM144 432l-96-96 119-119 160 160-55 55z"/></symbol><symbol viewBox="0 0 512 512" id="icon-dots"><path d="M432 206c-27.6 0-50 22.4-50 50s22.4 50 50 50 50-22.4 50-50-22.4-50-50-50zm-126 50c0 27.6-22.4 50-50 50s-50-22.4-50-50 22.4-50 50-50 50 22.4 50 50zM80 206c-27.6 0-50 22.4-50 50s22.4 50 50 50 50-22.4 50-50-22.4-50-50-50z"/></symbol><symbol viewBox="0 0 576 512" id="icon-download"><path d="M528 288h-92.1l46.1-46.1c30.1-30.1 8.8-81.9-33.9-81.9h-64V48c0-26.5-21.5-48-48-48h-96c-26.5 0-48 21.5-48 48v112h-64c-42.6 0-64.2 51.7-33.9 81.9l46.1 46.1H48c-26.5 0-48 21.5-48 48v128c0 26.5 21.5 48 48 48h480c26.5 0 48-21.5 48-48V336c0-26.5-21.5-48-48-48zm-400-80h112V48h96v160h112L288 368 128 208zm400 256H48V336h140.1l65.9 65.9c18.8 18.8 49.1 18.7 67.9 0l65.9-65.9H528v128zm-88-64c0-13.3 10.7-24 24-24s24 10.7 24 24-10.7 24-24 24-24-10.7-24-24z"/></symbol><symbol viewBox="0 0 16 16" id="icon-duplicate"><path d="M14.5 0h-10A1.5 1.5 0 003 1.5V3H1.5A1.5 1.5 0 000 4.5v10A1.5 1.5 0 001.5 16h10a1.5 1.5 0 001.5-1.5V13h1.5a1.5 1.5 0 001.5-1.5v-10A1.5 1.5 0 0014.5 0zm-3.187 14.5H1.688a.187.187 0 01-.187-.187V4.688a.188.188 0 01.187-.188H3v7A1.5 1.5 0 004.5 13h7v1.313a.187.187 0 01-.187.187zm3-3H4.688a.187.187 0 01-.187-.187V1.688a.188.188 0 01.187-.188h9.625a.187.187 0 01.188.188v9.625a.187.187 0 01-.188.187z"/></symbol><symbol viewBox="0 0 15.899 16" id="icon-flip-horizontaly"><path d="M15.899 6.06a1 1 0 01-1 1H.999a1 1 0 01-1-1 1 1 0 01.659-.919l13.9-5.082a1 1 0 01.915.122 1 1 0 01.425.819zm-1.349-.331V1.5L3 5.729zM15.899 15a1 1 0 01-.425.819 1 1 0 01-.915.122l-13.9-5.082a1 1 0 01-.643-1.111 1 1 0 01.983-.828h13.9a1 1 0 011 1z"/></symbol><symbol viewBox="0 0 16 15.901" id="icon-flip-verticaly"><path d="M9.94 15.9a1 1 0 01-1-1V1a1 1 0 011-1 1 1 0 01.918.661l5.081 13.9a1 1 0 01-.121.915 1.009 1.009 0 01-.817.426zm.33-1.35h4.229L10.27 3zM.999 15.9a1.007 1.007 0 01-.818-.426 1 1 0 01-.123-.915l5.08-13.9A1 1 0 016.25.015a1 1 0 01.829.984v13.9a1 1 0 01-1 1z"/></symbol><symbol class="aisvg-inline--fa aifa-image aifa-w-16" viewBox="0 0 512 512" id="icon-image"><path fill="currentColor" d="M464 64H48C21.49 64 0 85.49 0 112v288c0 26.51 21.49 48 48 48h416c26.51 0 48-21.49 48-48V112c0-26.51-21.49-48-48-48zm-6 336H54a6 6 0 01-6-6V118a6 6 0 016-6h404a6 6 0 016 6v276a6 6 0 01-6 6zM128 152c-22.091 0-40 17.909-40 40s17.909 40 40 40 40-17.909 40-40-17.909-40-40-40zM96 352h320v-80l-87.515-87.515c-4.686-4.686-12.284-4.686-16.971 0L192 304l-39.515-39.515c-4.686-4.686-12.284-4.686-16.971 0L96 304v48z"/></symbol><symbol viewBox="0 0 21.998 12.002" id="icon-layer-back"><path d="M13.452 11.882l-2.45-1.072-1.91-.809L6.601 8.91a1.01 1.01 0 01-.512-.519 1.014 1.014 0 01-.017-.767 1.008 1.008 0 01.529-.554l1.18-.521 1.3.571 1.921.82 2.419 1.059a1.373 1.373 0 00.581.12 1.376 1.376 0 00.54-.12l5.668-2.45 1.192.521-.011.011a1 1 0 01.607.918 1 1 0 01-.607.92l-.66.282-6.189 2.689a1.419 1.419 0 01-.54.111 1.475 1.475 0 01-.55-.119zm-11.708-.476L.053 8.023A.5.5 0 01.501 7.3h1.032V.8a.5.5 0 01.5-.5h.35a.5.5 0 01.5.5v6.5h1a.5.5 0 01.446.723L2.64 11.406a.494.494 0 01-.448.277.5.5 0 01-.448-.277zM13.988 8a1.384 1.384 0 01-.568-.12l-2.419-1.059-1.91-.82L6.6 4.921a1.013 1.013 0 01-.512-.508 1.006 1.006 0 01-.022-.773 1 1 0 01.534-.558l6.82-2.96a1.455 1.455 0 011.161 0l6.809 2.949a1 1 0 01.607.92 1 1 0 01-.607.922l-.66.289-6.189 2.689a1.393 1.393 0 01-.54.109zM8.249 4L14 6.5 19.75 4 14 1.5z"/></symbol><symbol viewBox="0 0 21.949 15.999" id="icon-layer-bringtofront"><path d="M13.375 15.898l-2.392-1.1-1.893-.8-2.592-1.2a1.214 1.214 0 01-.5-.5.988.988 0 01.5-1.3l1.2-.5 1.3.6.6.3-1.4.6 5.781 2.493 5.684-2.493-1.4-.6 1.895-.8 1.2.5a.873.873 0 01.6.9.962.962 0 01-.6.9l-.7.3-6.181 2.69a.739.739 0 01-.5.1 1.248 1.248 0 01-.602-.09zM2 13.45a.472.472 0 01-.5-.5v-6.5h-1a.473.473 0 01-.5-.5c0-.1 0-.2.1-.2l1.7-3.4a.446.446 0 01.6-.3.216.216 0 01.2.2l1.7 3.4a.665.665 0 01-.2.7c-.1.1-.1.1-.2.1h-1v6.5a.472.472 0 01-.5.5zm11.375-1.536l-2.392-1.1-1.893-.8-2.493-1.1a1.2 1.2 0 01-.5-.5.991.991 0 01.5-1.3l1.4-.6 1.1.5.7.3-1.595.7 5.781 2.491 5.783-2.491-1.694-.7 1.893-.8 1.4.6a.875.875 0 01.6.9.873.873 0 01-.6.9l-.7.3-6.181 2.694a.761.761 0 01-.5.1 1.288 1.288 0 01-.609-.094zm0-3.988l-2.392-1.1-1.893-.8-2.493-1.1a1.2 1.2 0 01-.5-.5.989.989 0 01.5-1.3l6.777-2.99a1.265 1.265 0 011.2 0l6.779 2.99a.872.872 0 01.6.9.872.872 0 01-.6.9l-.7.3-6.181 2.694a.75.75 0 01-.5.1 1.268 1.268 0 01-.597-.094z"/></symbol><symbol viewBox="0 0 21.997 12.001" id="icon-layer-forward"><path d="M13.453 11.881L11 10.812l-1.909-.811-2.489-1.09a.993.993 0 01-.512-.52 1 1 0 01-.018-.765 1 1 0 01.53-.555l1.179-.52 1.3.58.58.251-1.412.62L14 10.49l5.749-2.488-1.419-.631 1.879-.82 1.191.52-.011.011a1 1 0 01.608.921 1 1 0 01-.608.919l-.659.281-6.191 2.69a1.435 1.435 0 01-.539.11 1.412 1.412 0 01-.547-.122zM2 11.681a.5.5 0 01-.5-.5v-6.5h-1a.5.5 0 01-.445-.723L1.744.575a.5.5 0 01.447-.277.5.5 0 01.447.277l1.691 3.383a.5.5 0 01-.447.723H2.85v6.5a.5.5 0 01-.5.5zm11.419-3.8L11 6.821l-1.909-.82-2.489-1.08a1.01 1.01 0 01-.512-.511.989.989 0 01-.023-.771 1 1 0 01.535-.558l6.817-2.96a1.457 1.457 0 011.161 0l6.81 2.95a1 1 0 01.608.921 1 1 0 01-.608.919l-.659.29-6.191 2.69a1.4 1.4 0 01-.539.111 1.465 1.465 0 01-.582-.121z"/></symbol><symbol viewBox="0 0 22.001 16.049" id="icon-layer-tobackground"><path d="M13.4 15.949l-2.4-1.1-1.9-.8-2.5-1.2a1.193 1.193 0 01-.5-.5.994.994 0 01.5-1.3l1.2-.5 1.3.6 1.9.8 2.4 1.1a1.263 1.263 0 00.6.1 1.08 1.08 0 00.5-.1l5.7-2.4 1.2.5a.875.875 0 01.6.9.965.965 0 01-.6.9l-.7.3-6.2 2.7a.757.757 0 01-.5.1 1.285 1.285 0 01-.6-.1zM1.8 13.11L.1 9.71c-.1 0-.1-.1-.1-.2a.472.472 0 01.5-.5h1v-6.5a.472.472 0 01.5-.5h.4a.473.473 0 01.5.5v6.5h1c.1 0 .1 0 .2.1a.666.666 0 01.2.7l-1.7 3.4a.215.215 0 01-.2.2.369.369 0 01-.164.037.469.469 0 01-.436-.336zm11.6-1.161l-2.4-1.1-1.9-.8-2.5-1.1a1.207 1.207 0 01-.5-.5.992.992 0 01.5-1.3l1.4-.6 1.1.5.7.3-1.6.7 5.8 2.5 5.8-2.5-1.7-.7 1.9-.8 1.4.6a.875.875 0 01.6.9.879.879 0 01-.6.9l-.7.3-6.2 2.7a.756.756 0 01-.5.1 1.284 1.284 0 01-.6-.1zm0-4l-2.4-1.1-1.9-.8-2.5-1.1a1.207 1.207 0 01-.5-.5.992.992 0 01.5-1.3l6.8-3a1.28 1.28 0 011.2 0l6.8 3a.875.875 0 01.6.9.879.879 0 01-.6.9l-.7.3-6.2 2.7a.756.756 0 01-.5.1 1.284 1.284 0 01-.6-.1zm-5.2-3.9l5.8 2.5 5.8-2.5-5.8-2.5z"/></symbol><symbol viewBox="0 0 16.002 15.974" id="icon-layers"><path d="M7.44 15.875l-2.388-1.094-1.891-.8-2.589-1.195a1.2 1.2 0 01-.5-.5.987.987 0 01.5-1.294l1.195-.5 1.294.6.6.3-1.394.6 5.774 2.488 5.673-2.488-1.394-.6 1.891-.8 1.195.5a.87.87 0 01.6.9.958.958 0 01-.6.9l-.7.3-6.172 2.688a.747.747 0 01-.5.1 1.275 1.275 0 01-.594-.105zm0-3.981L5.052 10.8 3.161 10 .673 8.906a1.2 1.2 0 01-.5-.5.988.988 0 01.5-1.294l1.392-.6 1.1.5.7.3-1.593.7 5.774 2.487 5.771-2.487-1.692-.7 1.891-.8 1.394.6a.873.873 0 01.6.9.872.872 0 01-.6.9l-.7.3L8.538 11.9a.747.747 0 01-.5.1 1.273 1.273 0 01-.598-.106zm0-3.981L5.052 6.819l-1.891-.8L.673 4.925a1.206 1.206 0 01-.5-.5.989.989 0 01.5-1.3L7.441.14a1.269 1.269 0 011.195 0l6.768 2.985a.873.873 0 01.6.9.87.87 0 01-.6.9l-.7.3-6.172 2.688a.736.736 0 01-.5.1 1.254 1.254 0 01-.592-.101zM2.264 4.032l5.774 2.487 5.771-2.487-5.771-2.489z"/></symbol><symbol viewBox="0 0 576 512" id="icon-load"><path d="M528 288H384v-32h64c42.6 0 64.2-51.7 33.9-81.9l-160-160c-18.8-18.8-49.1-18.7-67.9 0l-160 160c-30.1 30.1-8.7 81.9 34 81.9h64v32H48c-26.5 0-48 21.5-48 48v128c0 26.5 21.5 48 48 48h480c26.5 0 48-21.5 48-48V336c0-26.5-21.5-48-48-48zm-400-80L288 48l160 160H336v160h-96V208H128zm400 256H48V336h144v32c0 26.5 21.5 48 48 48h96c26.5 0 48-21.5 48-48v-32h144v128zm-40-64c0 13.3-10.7 24-24 24s-24-10.7-24-24 10.7-24 24-24 24 10.7 24 24z"/></symbol><symbol viewBox="0 0 512 512" id="icon-load-modal"><path d="M452 432c0 11-9 20-20 20s-20-9-20-20 9-20 20-20 20 9 20 20zm-84-20c-11 0-20 9-20 20s9 20 20 20 20-9 20-20-9-20-20-20zm144-48v104c0 24.3-19.7 44-44 44H44c-24.3 0-44-19.7-44-44V364c0-24.3 19.7-44 44-44h124v-99.3h-52.7c-35.6 0-53.4-43.1-28.3-68.3L227.7 11.7c15.6-15.6 40.9-15.6 56.6 0L425 152.4c25.2 25.2 7.3 68.3-28.3 68.3H344V320h124c24.3 0 44 19.7 44 44zM200 188.7V376c0 4.4 3.6 8 8 8h96c4.4 0 8-3.6 8-8V188.7h84.7c7.1 0 10.7-8.6 5.7-13.7L261.7 34.3c-3.1-3.1-8.2-3.1-11.3 0L109.7 175c-5 5-1.5 13.7 5.7 13.7H200zM480 364c0-6.6-5.4-12-12-12H344v24c0 22.1-17.9 40-40 40h-96c-22.1 0-40-17.9-40-40v-24H44c-6.6 0-12 5.4-12 12v104c0 6.6 5.4 12 12 12h424c6.6 0 12-5.4 12-12V364z"/></symbol><symbol viewBox="0 0 14 16" id="icon-lock"><path d="M7 12.875A.874.874 0 016.125 12v-2a.875.875 0 011.75 0v2a.874.874 0 01-.875.875zM14 7.5v7a1.5 1.5 0 01-1.5 1.5h-11A1.5 1.5 0 010 14.5v-7A1.5 1.5 0 011.5 6h1V4.5a4.5 4.5 0 119 .044V6h1A1.5 1.5 0 0114 7.5zM4 6h6V4.5a3 3 0 10-6 0zm8.5 1.5h-11v7h11z"/></symbol><symbol viewBox="0 0 16 16" id="icon-opacity"><g fill-rule="evenodd"><path d="M.8 0h1.6a.8.8 0 01.8.8v1.6a.8.8 0 01-.8.8H.8a.8.8 0 01-.8-.8V.8A.8.8 0 01.8 0zm0 6.4h1.6a.8.8 0 01.8.8v1.6a.8.8 0 01-.8.8H.8a.8.8 0 01-.8-.8V7.2a.8.8 0 01.8-.8zm0 6.4h1.6a.8.8 0 01.8.8v1.6a.8.8 0 01-.8.8H.8a.8.8 0 01-.8-.8v-1.6a.8.8 0 01.8-.8z"/><path d="M7.2 0h1.6a.8.8 0 01.8.8v1.6a.8.8 0 01-.8.8H7.2a.8.8 0 01-.8-.8V.8a.8.8 0 01.8-.8zm0 6.4h1.6a.8.8 0 01.8.8v1.6a.8.8 0 01-.8.8H7.2a.8.8 0 01-.8-.8V7.2a.8.8 0 01.8-.8zm0 6.4h1.6a.8.8 0 01.8.8v1.6a.8.8 0 01-.8.8H7.2a.8.8 0 01-.8-.8v-1.6a.8.8 0 01.8-.8z" opacity=".45"/><path d="M13.6 0h1.6a.8.8 0 01.8.8v1.6a.8.8 0 01-.8.8h-1.6a.8.8 0 01-.8-.8V.8a.8.8 0 01.8-.8zm0 6.4h1.6a.8.8 0 01.8.8v1.6a.8.8 0 01-.8.8h-1.6a.8.8 0 01-.8-.8V7.2a.8.8 0 01.8-.8zm0 6.4h1.6a.8.8 0 01.8.8v1.6a.8.8 0 01-.8.8h-1.6a.8.8 0 01-.8-.8v-1.6a.8.8 0 01.8-.8z" opacity=".15"/><path d="M4 3.2h1.6a.8.8 0 01.8.8v1.6a.8.8 0 01-.8.8H4a.8.8 0 01-.8-.8V4a.8.8 0 01.8-.8zm0 6.4h1.6a.8.8 0 01.8.8V12a.8.8 0 01-.8.8H4a.8.8 0 01-.8-.8v-1.6a.8.8 0 01.8-.8z" opacity=".7"/><path d="M10.4 3.2H12a.8.8 0 01.8.8v1.6a.8.8 0 01-.8.8h-1.6a.8.8 0 01-.8-.8V4a.8.8 0 01.8-.8zm0 6.4H12a.8.8 0 01.8.8V12a.8.8 0 01-.8.8h-1.6a.8.8 0 01-.8-.8v-1.6a.8.8 0 01.8-.8z" opacity=".3"/></g></symbol><symbol viewBox="0 0 512 512" id="icon-print"><path d="M400 264c-13.25 0-24 10.74-24 24 0 13.25 10.75 24 24 24s24-10.75 24-24c0-13.26-10.75-24-24-24zm32-88V99.88c0-12.73-5.06-24.94-14.06-33.94l-51.88-51.88c-9-9-21.21-14.06-33.94-14.06H110.48C93.64 0 80 14.33 80 32v144c-44.18 0-80 35.82-80 80v128c0 8.84 7.16 16 16 16h64v96c0 8.84 7.16 16 16 16h320c8.84 0 16-7.16 16-16v-96h64c8.84 0 16-7.16 16-16V256c0-44.18-35.82-80-80-80zM128 48h192v48c0 8.84 7.16 16 16 16h48v64H128V48zm256 416H128v-64h256v64zm80-112H48v-96c0-17.64 14.36-32 32-32h352c17.64 0 32 14.36 32 32v96z"/></symbol><symbol viewBox="0 0 16.258 16" id="icon-rotate-clockwise"><path d="M15.871 0h-.894a.387.387 0 00-.387.4l.076 3.18a8 8 0 10-1.305 10.363.388.388 0 00.016-.562l-.637-.637a.388.388 0 00-.532-.018A6.323 6.323 0 1113.764 5.4l-4.077-.1a.387.387 0 00-.4.387v.894a.387.387 0 00.387.387h6.194a.387.387 0 00.387-.387V.387A.387.387 0 0015.871 0z"/></symbol><symbol viewBox="0 0 16.258 16" id="icon-rotate-counterclockwise"><path d="M.387 0h.894a.387.387 0 01.387.4l-.076 3.18A8 8 0 112.9 13.938a.388.388 0 01-.016-.562l.637-.637a.388.388 0 01.532-.018A6.323 6.323 0 102.494 5.4l4.077-.1a.387.387 0 01.4.387v.894a.387.387 0 01-.387.387H.387A.387.387 0 010 6.58V.387A.387.387 0 01.387 0z"/></symbol><symbol viewBox="0 0 448 512" id="icon-save"><path d="M433.941 129.941l-83.882-83.882A48 48 0 00316.118 32H48C21.49 32 0 53.49 0 80v352c0 26.51 21.49 48 48 48h352c26.51 0 48-21.49 48-48V163.882a48 48 0 00-14.059-33.941zM272 80v80H144V80h128zm122 352H54a6 6 0 01-6-6V86a6 6 0 016-6h42v104c0 13.255 10.745 24 24 24h176c13.255 0 24-10.745 24-24V83.882l78.243 78.243a6 6 0 011.757 4.243V426a6 6 0 01-6 6zM224 232c-48.523 0-88 39.477-88 88s39.477 88 88 88 88-39.477 88-88-39.477-88-88-88zm0 128c-22.056 0-40-17.944-40-40s17.944-40 40-40 40 17.944 40 40-17.944 40-40 40z"/></symbol><symbol viewBox="0 0 448 512" id="icon-save-light"><path d="M433.941 129.941l-83.882-83.882A48 48 0 00316.118 32H48C21.49 32 0 53.49 0 80v352c0 26.51 21.49 48 48 48h352c26.51 0 48-21.49 48-48V163.882a48 48 0 00-14.059-33.941zM288 64v96H96V64h192zm128 368c0 8.822-7.178 16-16 16H48c-8.822 0-16-7.178-16-16V80c0-8.822 7.178-16 16-16h16v104c0 13.255 10.745 24 24 24h208c13.255 0 24-10.745 24-24V64.491a15.888 15.888 0 017.432 4.195l83.882 83.882A15.895 15.895 0 01416 163.882V432zM224 232c-48.523 0-88 39.477-88 88s39.477 88 88 88 88-39.477 88-88-39.477-88-88-88zm0 144c-30.879 0-56-25.121-56-56s25.121-56 56-56 56 25.121 56 56-25.121 56-56 56z"/></symbol><symbol viewBox="0 0 576 512" id="icon-star-outline"><path d="M528.1 171.5L382 150.2 316.7 17.8c-11.7-23.6-45.6-23.9-57.4 0L194 150.2 47.9 171.5c-26.2 3.8-36.7 36.1-17.7 54.6l105.7 103-25 145.5c-4.5 26.3 23.2 46 46.4 33.7L288 439.6l130.7 68.7c23.2 12.2 50.9-7.4 46.4-33.7l-25-145.5 105.7-103c19-18.5 8.5-50.8-17.7-54.6zM405.8 317.9l27.8 162L288 403.5 142.5 480l27.8-162L52.5 203.1l162.7-23.6L288 32l72.8 147.5 162.7 23.6-117.7 114.8z"/></symbol><symbol viewBox="0 0 12.444 12" id="icon-text-align-center"><path d="M3 1.333h6.442A.336.336 0 009.778 1V.339A.336.336 0 009.442 0H3a.336.336 0 00-.336.336V1A.336.336 0 003 1.333zm9 9.333H.444a.444.444 0 00-.444.445v.444A.444.444 0 00.444 12H12a.444.444 0 00.444-.444v-.444a.444.444 0 00-.444-.445zm0-7.111H.444A.444.444 0 000 4v.444a.444.444 0 00.444.444H12a.444.444 0 00.444-.444V4A.444.444 0 0012 3.556zM9.442 8.444a.336.336 0 00.336-.336v-.661a.336.336 0 00-.336-.336H3a.336.336 0 00-.336.336v.661A.336.336 0 003 8.444z"/></symbol><symbol viewBox="0 0 12 11.571" id="icon-text-align-left"><path d="M11.571 4.714H.429A.429.429 0 010 4.286v-.429a.429.429 0 01.429-.429h11.142a.429.429 0 01.429.429v.429a.429.429 0 01-.429.428zM.429 10.286h11.142a.429.429 0 01.429.429v.429a.429.429 0 01-.429.429H.429a.429.429 0 01-.429-.43v-.429a.429.429 0 01.429-.428zM.344 0h7.027a.343.343 0 01.344.344v.6a.343.343 0 01-.344.344H.344A.343.343 0 010 .942v-.6A.343.343 0 01.344 0zm0 6.857h7.027a.343.343 0 01.344.344v.6a.343.343 0 01-.344.344H.344A.343.343 0 010 7.8v-.6a.343.343 0 01.344-.344z"/></symbol><symbol viewBox="0 0 12 11.57" id="icon-text-align-right"><path d="M.429 4.714h11.142A.429.429 0 0012 4.286v-.429a.429.429 0 00-.429-.429H.429A.429.429 0 000 3.857v.429a.429.429 0 00.429.429zm11.143 5.571H.429a.429.429 0 00-.429.429v.429a.429.429 0 00.429.429h11.142a.429.429 0 00.429-.429v-.429a.429.429 0 00-.429-.428zM11.656 0H4.629a.343.343 0 00-.344.344v.6a.343.343 0 00.344.344h7.027A.343.343 0 0012 .942v-.6A.343.343 0 0011.656 0zm0 6.857H4.629a.343.343 0 00-.344.344v.6a.343.343 0 00.344.344h7.027A.343.343 0 0012 7.8v-.6a.343.343 0 00-.344-.344z"/></symbol><symbol viewBox="0 0 17.144 12" id="icon-text-lead"><path d="M16.776 9.643H7.225a.4.4 0 00-.367.429v.429a.4.4 0 00.367.429h9.552a.4.4 0 00.367-.429v-.429a.4.4 0 00-.368-.429zM4.714 3a.429.429 0 00.3-.732L2.875.126a.429.429 0 00-.606 0L.126 2.269a.427.427 0 00.3.732h1.5v6H.429a.429.429 0 00-.3.732l2.143 2.143a.429.429 0 00.606 0l2.143-2.143a.427.427 0 00-.3-.732h-1.5v-6zm12.062 2.357H7.225a.4.4 0 00-.367.429v.429a.4.4 0 00.367.429h9.552a.4.4 0 00.367-.429v-.429a.4.4 0 00-.367-.429zm0-4.286H7.225a.4.4 0 00-.367.429v.429a.4.4 0 00.367.429h9.552a.4.4 0 00.367-.429V1.5a.4.4 0 00-.367-.429z"/></symbol><symbol viewBox="0 0 16 16" id="icon-text-stroke"><path d="M14.3 1.212a.486.486 0 01.485.485v2.182a.243.243 0 01-.242.242h-.485a.243.243 0 01-.242-.242v-1.7H8.485v11.639h2.182a.243.243 0 01.242.242v.485a.243.243 0 01-.242.242H5.333a.243.243 0 01-.242-.242v-.485a.243.243 0 01.242-.242h2.182V2.182H2.182v1.7a.243.243 0 01-.242.242h-.485a.243.243 0 01-.242-.242V1.7a.486.486 0 01.485-.485H14.3M14.3 0H1.7A1.7 1.7 0 000 1.7v2.182a1.455 1.455 0 001.455 1.455h.485a1.455 1.455 0 001.455-1.455v-.485H6.3v9.212h-.97a1.455 1.455 0 00-1.455 1.455v.485A1.455 1.455 0 005.333 16h5.333a1.455 1.455 0 001.455-1.455v-.485a1.455 1.455 0 00-1.455-1.455H9.7V3.394h2.909v.485a1.455 1.455 0 001.455 1.455h.485A1.455 1.455 0 0016 3.879V1.7A1.7 1.7 0 0014.3 0z"/></symbol><symbol viewBox="0 0 15 16" id="icon-trash"><path d="M6.5 1.25h2A1.25 1.25 0 019.75 2.5V3h-4.5v-.5A1.25 1.25 0 016.5 1.25zM4 3v-.5A2.5 2.5 0 016.5 0h2A2.5 2.5 0 0111 2.5V3h3.375a.625.625 0 010 1.25H13.5V13a3 3 0 01-3 3h-6a3 3 0 01-3-3V4.25H.625a.625.625 0 010-1.25zm7 1.25H2.75V13a1.751 1.751 0 001.75 1.75h6A1.75 1.75 0 0012.25 13V4.25zM5.625 6h-.25v6h1.25V6zm2.75 1V6h1.25v6h-1.25z" fill-rule="evenodd"/></symbol><symbol viewBox="0 0 14 16" id="icon-unlock"><path d="M12.5 16h-11A1.5 1.5 0 010 14.5v-7A1.5 1.5 0 011.5 6H10V4.5a3 3 0 00-3-3 3.023 3.023 0 00-2.7 1.688l-1.376-.6A4.525 4.525 0 017 0h.012a4.529 4.529 0 014.487 4.544V6h1a1.5 1.5 0 011.5 1.5v7A1.5 1.5 0 0112.5 16zm-11-8.5v7h11v-7zM7 12.875A.876.876 0 016.125 12v-2A.876.876 0 017 9.125a.876.876 0 01.875.875v2a.876.876 0 01-.875.875z"/></symbol></svg>